<svg xmlns="http://www.w3.org/2000/svg" viewBox="0 0 90.9 89.96"><defs><style>.cls-1{fill:#fff;}</style></defs><g id="Calque_2" data-name="Calque 2"><g id="Calque_1-2" data-name="Calque 1"><path class="cls-1" d="M16,19.44A9.72,9.72,0,1,0,6.22,9.73,9.73,9.73,0,0,0,16,19.44Z"/><path d="M90.9,82.1a2.51,2.51,0,0,1-3,1.37,8.46,8.46,0,0,1-4.54-2.24c-1.17-1.06-2.48-1.84-4.09-1.42a7.27,7.27,0,0,0-2.46,1.29,10,10,0,0,1-4.42,2.3A7.9,7.9,0,0,1,66,81.83c-.51-.4-1-.83-1.52-1.23a4.18,4.18,0,0,0-5.25.05c-.63.48-1.22,1-1.89,1.47a7.79,7.79,0,0,1-9.68-.54,7,7,0,0,0-4.06-2A1.77,1.77,0,0,1,42,77.67a1.89,1.89,0,0,1,2-1.79,7.42,7.42,0,0,1,4.91,1.74c.49.38,1,.79,1.45,1.17a4.14,4.14,0,0,0,5.18,0c.4-.3.79-.62,1.18-.94a7.84,7.84,0,0,1,7.89-1.52l.52.13c-3.71-21.9-7.4-43.71-11.15-65.84-1.35,1.08-2.64,2-3.75,3a27.3,27.3,0,0,0-6.68,11.05,57,57,0,0,0-3,17.95,3.58,3.58,0,0,1-4.41,3.45c-.8-.18-1.59-.38-2.54-.61.35,1.36.62,2.61,1,3.84,1.56,5.21,3.06,10.43,4.75,15.59a19.72,19.72,0,0,1,.8,8.92c-.51,4-.94,8-1.37,12a4.17,4.17,0,0,1-3.8,4,17.63,17.63,0,0,1-1.77.16A2.78,2.78,0,0,1,30,86.86c.12-1.92.38-3.83.59-5.74.32-2.85.67-5.7,1-8.55a8.17,8.17,0,0,0-1.07-5c-1.26-2.2-2.49-4.43-3.82-6.79-.17.42-.29.72-.4,1q-1.35,4-2.68,8.08A11.27,11.27,0,0,1,20,75.11L7.26,85.52c-1.93,1.58-3.79,1.35-5.55-.44-2.44-2.45-2.27-4.61.53-6.69,3.43-2.56,6.73-5.32,10.09-8a9.54,9.54,0,0,0,3.11-4.34c.82-2.28,1.61-4.57,2.52-6.82A5.71,5.71,0,0,0,18.22,56q-1.27-7-2.45-14.06c-.13-.73-.34-1.21-1.16-1.26a7.48,7.48,0,0,1-1.2-.29,3.77,3.77,0,0,1-3.06-3.56c-.23-3.4-.41-6.8-.56-10.2a3,3,0,0,1,2.77-3.12q8.1-1,16.2-1.95a8.92,8.92,0,0,0,4.17-1.62c2.08-1.46,4.2-2.88,6.24-4.4,1.55-1.15,3.16-1.71,4.81-1,1.84-1.81,3.49-3.64,5.36-5.21a26.65,26.65,0,0,1,4.44-2.72A1.84,1.84,0,0,1,56.32,7c.63.84.51,1.65-.31,2.62a1.07,1.07,0,0,0-.2.78q2.94,17.4,5.9,34.8,2.72,16,5.4,31.92c.18,1.06,1.75,2.32,3.12,2.49a4.42,4.42,0,0,0,3.61-1.08A9.41,9.41,0,0,1,78.35,76a8,8,0,0,1,6.59,1.59,9.59,9.59,0,0,0,1.39,1.1,7.34,7.34,0,0,0,2.25.89,2.57,2.57,0,0,1,2.32,1.61Zm-52-56.72c-2.51,3-6.27,2.72-9.64,3.63.69,2.67,1.35,5.27,2,7.86a.81.81,0,0,0,.5.49c1.62.43,3.24.82,4.74,1.19Z"/><path d="M16,19.44A9.72,9.72,0,1,1,15.93,0a9.72,9.72,0,1,1,0,19.44Z"/><path class="cls-1" d="M38.91,25.38,36.55,38.55c-1.5-.37-3.12-.76-4.74-1.19a.81.81,0,0,1-.5-.49c-.69-2.59-1.35-5.19-2-7.86C32.64,28.1,36.4,28.36,38.91,25.38Z"/></g></g></svg>