<svg width="78" height="79" viewBox="0 0 78 79" fill="none" xmlns="http://www.w3.org/2000/svg">
<path d="M22.5074 78.1674H20.179C15.9104 78.1674 12.8059 74.6749 12.8059 70.7943V43.6301C12.8059 39.3614 16.2984 36.257 20.179 36.257H22.5074C26.7761 36.257 29.8805 39.7495 29.8805 43.6301V70.7943C30.2686 75.0629 26.7761 78.1674 22.5074 78.1674Z" fill="#343C46"/>
<path d="M55.8808 78.1674H58.2092C62.4778 78.1674 65.5823 74.6749 65.5823 70.7943V43.6301C65.5823 39.3614 62.0898 36.257 58.2092 36.257H55.8808C51.6122 36.257 48.5077 39.7495 48.5077 43.6301V70.7943C48.5077 75.0629 51.6122 78.1674 55.8808 78.1674Z" fill="#343C46"/>
<path d="M39.194 0.167358C13.9701 0.167358 0 23.839 0 36.645V51.7793V59.5405V59.9285C0 61.4808 0.388059 62.645 1.16418 63.8091C1.55224 64.5853 2.32836 64.9733 3.10448 65.3614C4.65672 66.5256 6.59701 66.9136 8.53731 66.9136C8.92537 66.9136 8.92537 66.9136 9.31343 66.9136V46.7345C8.92537 46.7345 8.92537 46.7345 8.53731 46.7345C7.76119 46.7345 6.59701 46.7345 5.8209 47.1226V36.645C5.8209 28.1077 15.9104 6.37631 38.806 6.37631C61.7015 6.37631 71.791 28.1077 71.791 36.645V46.7345C71.0149 46.3465 70.2388 46.3465 69.0746 46.3465C68.6866 46.3465 68.6866 46.3465 68.2985 46.3465V66.5256C68.6866 66.5256 68.6866 66.5256 69.0746 66.5256C71.0149 66.5256 72.9552 65.7495 74.5075 64.9733C75.2836 64.5853 76.0597 63.8091 76.4478 63.4211C77.2239 62.2569 77.6119 61.0927 77.6119 59.5405V59.1524V51.3912V36.645C78.3881 23.839 64.4179 0.167358 39.194 0.167358Z" fill="#343C46"/>
<path d="M22.5074 78.1674H20.179C15.9104 78.1674 12.8059 74.6749 12.8059 70.7943V43.6301C12.8059 39.3614 16.2984 36.257 20.179 36.257H22.5074C26.7761 36.257 29.8805 39.7495 29.8805 43.6301V70.7943C30.2686 75.0629 26.7761 78.1674 22.5074 78.1674Z" fill="black"/>
<path d="M55.8808 78.1674H58.2092C62.4778 78.1674 65.5823 74.6749 65.5823 70.7943V43.6301C65.5823 39.3614 62.0898 36.257 58.2092 36.257H55.8808C51.6122 36.257 48.5077 39.7495 48.5077 43.6301V70.7943C48.5077 75.0629 51.6122 78.1674 55.8808 78.1674Z" fill="black"/>
<path d="M39.194 0.167358C13.9701 0.167358 0 23.839 0 36.645V51.7793V59.5405V59.9285C0 61.4808 0.388059 62.645 1.16418 63.8091C1.55224 64.5853 2.32836 64.9733 3.10448 65.3614C4.65672 66.5256 6.59701 66.9136 8.53731 66.9136C8.92537 66.9136 8.92537 66.9136 9.31343 66.9136V46.7345C8.92537 46.7345 8.92537 46.7345 8.53731 46.7345C7.76119 46.7345 6.59701 46.7345 5.8209 47.1226V36.645C5.8209 28.1077 15.9104 6.37631 38.806 6.37631C61.7015 6.37631 71.791 28.1077 71.791 36.645V46.7345C71.0149 46.3465 70.2388 46.3465 69.0746 46.3465C68.6866 46.3465 68.6866 46.3465 68.2985 46.3465V66.5256C68.6866 66.5256 68.6866 66.5256 69.0746 66.5256C71.0149 66.5256 72.9552 65.7495 74.5075 64.9733C75.2836 64.5853 76.0597 63.8091 76.4478 63.4211C77.2239 62.2569 77.6119 61.0927 77.6119 59.5405V59.1524V51.3912V36.645C78.3881 23.839 64.4179 0.167358 39.194 0.167358Z" fill="black"/>
</svg>
