<svg xmlns="http://www.w3.org/2000/svg" viewBox="0 0 96.77 103.95"><g id="Calque_2" data-name="Calque 2"><g id="Calque_1-2" data-name="Calque 1"><path d="M53.7,16.91a8.46,8.46,0,1,0-8.44-8.45A8.44,8.44,0,0,0,53.7,16.91Z"/><path d="M23.4,64.58H5a5,5,0,0,0,0,10H27.23a5,5,0,0,0,4.61-3.07l4.6-10.76L27.23,54.2Z"/><path d="M63.67,46.9a4.23,4.23,0,0,0,0-8.46H52.16L48.71,46.9Z"/><path d="M61.75,84.18,58.69,63a8.58,8.58,0,0,0-3.07-5L44.11,50l8.44-20.76A6.62,6.62,0,0,0,46.41,20H25.32L16.11,41.52c-.77,2.3,0,4.61,2.3,5.38a2.33,2.33,0,0,0,1.54.38,4.61,4.61,0,0,0,3.83-2.69l6.9-16.53H38L28.38,51.51,48.71,65.73l2.69,20a5.24,5.24,0,0,0,10.35-1.54Z"/><path d="M94.77,104H34.65a2,2,0,1,1,0-4H94.77a2,2,0,0,1,0,4Z"/></g></g></svg>