<svg xmlns="http://www.w3.org/2000/svg" viewBox="0 0 75.01 73.22"><defs><style>.cls-1{fill:#fff;}</style></defs><g id="Calque_2" data-name="Calque 2"><g id="Calque_1-2" data-name="Calque 1"><g id="Calque_2-2" data-name="Calque 2"><g id="Calque_1-2-2" data-name="Calque 1-2"><path class="cls-1" d="M30.87,26.63a3,3,0,0,1-.05.74c-.5,3.56-1,7.1-1.51,10.65a8.45,8.45,0,0,0,3.11,8.37c2.69,2.21,5.28,4.55,7.95,6.77a2.73,2.73,0,0,1,1,2.12c.31,4.6.66,9.21,1,13.85a4.28,4.28,0,0,0,4.47,4.08H47a4.24,4.24,0,0,0,4-4.47c0-.06,0-.13,0-.19-.36-5.33-.81-10.66-1.17-16a6.64,6.64,0,0,0-2.45-4.71c-1.7-1.46-3.36-3-5.1-4.39a3.59,3.59,0,0,1-1.46-3.65c.42-2.62.75-5.26,1.13-7.88.5-3.11.93-6.2,1.32-9.32.46-3.56-1.81-6.67-5.16-6.76a9.47,9.47,0,0,0-4,1c-2.86,1.35-5.61,2.95-8.43,4.38a7.38,7.38,0,0,0-4,4.76c-1.06,3.65-2.21,7.25-3.31,10.88a3.55,3.55,0,1,0,6.76,2.18c1-3.2,2.12-6.41,3-9.68A3.78,3.78,0,0,1,30.87,26.63Zm13.74,1.74c-.59,4.14-1.17,8.15-1.68,12.22a1.7,1.7,0,0,0,.64,1.17c1.69,1.52,3.51,2.91,5.12,4.51a15.06,15.06,0,0,1,2.55,3.44c.38.66.7.89,1.4.81,3-.38,6-.58,8.9-1.13a25.69,25.69,0,0,0,12.33-5.45c1.42-1.21,1.5-2.19.32-3.64a23.53,23.53,0,0,0-7.63-5.9C59.71,30.85,52.29,29.42,44.61,28.37ZM26.09,48.73c.53-1.63,1-3.15,1.48-4.65a1.22,1.22,0,0,0,0-.6c-.21-1-.44-1.91-.68-2.94a1.86,1.86,0,0,0-.23.32,5.71,5.71,0,0,1-10.35-4.72c.43-1.45.88-2.89,1.33-4.34S18.45,29,19,27.36c-2.45.25-4.78.4-7,.74-2.76.41-5.5.92-8.24,1.47a3.53,3.53,0,0,0-3.18,3c-.28,2-.41,4.14-.52,6.23a3,3,0,0,0,1.48,2.73,12.92,12.92,0,0,0,1.91,1,93.37,93.37,0,0,0,16.6,5C22,48,24,48.33,26.09,48.73Zm3.05-2.37c-.29.9-.57,1.78-.82,2.66-2,6.18-4,12.37-6,18.57A4.26,4.26,0,0,0,25.06,73h0a4.2,4.2,0,0,0,5.34-2.62v0C32.35,64.59,34.18,58.82,36,53a1.1,1.1,0,0,0-.27-.93c-2.17-1.92-4.35-3.8-6.6-5.75ZM33.75,6.82A6.87,6.87,0,1,0,40.66,0h0A6.85,6.85,0,0,0,33.75,6.82Z"/><path d="M30.87,26.63A3.78,3.78,0,0,0,28,29.39c-.81,3.26-1.93,6.47-2.94,9.68a3.56,3.56,0,0,1-6.77-2.18c1.1-3.63,2.26-7.23,3.32-10.88a7.34,7.34,0,0,1,4-4.76c2.83-1.43,5.58-3,8.44-4.38a9.43,9.43,0,0,1,4-1c3.35.09,5.63,3.2,5.16,6.76-.4,3.12-.87,6.21-1.31,9.32-.37,2.62-.71,5.26-1.12,7.88a3.59,3.59,0,0,0,1.41,3.63c1.73,1.39,3.4,2.93,5.08,4.39a6.64,6.64,0,0,1,2.45,4.71c.39,5.33.81,10.65,1.17,16a4.23,4.23,0,0,1-3.77,4.65l-.19,0a4.28,4.28,0,0,1-4.55-4s0-.06,0-.09c-.35-4.61-.71-9.21-1-13.86a2.69,2.69,0,0,0-1-2.11c-2.67-2.23-5.26-4.56-7.95-6.77a8.46,8.46,0,0,1-3-8.35c.53-3.55,1-7.09,1.51-10.65A6.38,6.38,0,0,1,30.87,26.63Z"/><path d="M44.61,28.37c7.68,1.05,15.1,2.48,22,6a23.49,23.49,0,0,1,7.62,5.9c1.19,1.45,1.1,2.45-.31,3.64a26,26,0,0,1-12.34,5.45c-2.93.55-5.93.75-8.9,1.13-.7.09-1-.14-1.39-.81a15.4,15.4,0,0,0-2.56-3.44c-1.63-1.63-3.43-3-5.11-4.51a1.67,1.67,0,0,1-.65-1.16C43.44,36.53,44,32.51,44.61,28.37Z"/><path d="M26.09,48.73C24,48.33,22,48,20,47.56a92.38,92.38,0,0,1-16.58-5,11.82,11.82,0,0,1-1.91-1A3,3,0,0,1,0,38.84c.11-2.09.24-4.2.52-6.23a3.53,3.53,0,0,1,3.16-3c2.73-.55,5.48-1.06,8.23-1.47,2.28-.33,4.58-.49,7.05-.74-.49,1.63-.93,3-1.35,4.44s-.9,2.85-1.3,4.3a5.72,5.72,0,0,0,10.41,4.72h0a2.57,2.57,0,0,1,.22-.32c.25,1,.48,2,.69,2.94a1.22,1.22,0,0,1,0,.6C27.12,45.58,26.63,47.08,26.09,48.73Z"/><path d="M29.15,46.36c2.25,2,4.43,3.83,6.57,5.75A1.1,1.1,0,0,1,36,53c-1.83,5.78-3.67,11.55-5.57,17.3A4.21,4.21,0,0,1,25.09,73h0a4.25,4.25,0,0,1-2.75-5.35v0c2-6.2,4-12.39,6-18.57C28.58,48.14,28.87,47.28,29.15,46.36Z"/><path d="M33.75,6.82a6.9,6.9,0,1,1,0,.07Z"/></g></g></g></g></svg>