<svg xmlns="http://www.w3.org/2000/svg" viewBox="0 0 92.18 88.19"><defs><style>.cls-1{fill:#343c46;}.cls-2{fill:#fff;}</style></defs><g id="Calque_2" data-name="Calque 2"><g id="Calque_1-2" data-name="Calque 1"><path class="cls-1" d="M31.72,60.09V44.41l-8.58,7.84H12.31a4.48,4.48,0,0,1,0-9H19.4L34.33,27.62H57.84L72.77,43.29h7.09a4.48,4.48,0,1,1,0,9H69l-8.58-7.84V60.09Z"/><path class="cls-1" d="M67.92,78h-44a7.09,7.09,0,0,1,0-14.18H68.29a7.08,7.08,0,0,1,7.09,7.09A7.41,7.41,0,0,1,67.92,78Z"/><path class="cls-1" d="M46.09,23.89a11.95,11.95,0,1,0-11.94-12A11.95,11.95,0,0,0,46.09,23.89Z"/><path d="M31.72,60.09V44.41l-8.58,7.84H12.31a4.48,4.48,0,0,1,0-9H19.4L34.33,27.62H57.84L72.77,43.29h7.09a4.48,4.48,0,1,1,0,9H69l-8.58-7.84V60.09Z"/><path d="M67.92,78h-44a7.09,7.09,0,0,1,0-14.18H68.29a7.08,7.08,0,0,1,7.09,7.09A7.41,7.41,0,0,1,67.92,78Z"/><path d="M46.09,23.89a11.95,11.95,0,1,0-11.94-12A11.95,11.95,0,0,0,46.09,23.89Z"/><path class="cls-2" d="M89.3,88.19H2.88c-1.59,0-2.88-.81-2.88-1.8s1.29-1.8,2.88-1.8H89.3c1.59,0,2.88.8,2.88,1.8S90.89,88.19,89.3,88.19Z"/></g></g></svg>