<?xml version="1.0" encoding="utf-8"?>
<!-- Svg Vector Icons : http://www.onlinewebfonts.com/icon -->
<!DOCTYPE svg PUBLIC "-//W3C//DTD SVG 1.1//EN" "http://www.w3.org/Graphics/SVG/1.1/DTD/svg11.dtd">
<svg version="1.1" xmlns="http://www.w3.org/2000/svg" xmlns:xlink="http://www.w3.org/1999/xlink" x="0px" y="0px" viewBox="0 0 1000 1000" enable-background="new 0 0 1000 1000" xml:space="preserve">
<metadata> Svg Vector Icons : http://www.onlinewebfonts.com/icon </metadata>
<g><g><path d="M937.9,10H62.1C33.3,10,10,33.3,10,62.1v875.7c0,28.8,23.3,52.1,52.1,52.1h875.7c28.8,0,52.1-23.3,52.1-52.1V62.1C990,33.3,966.7,10,937.9,10z M285.4,887.8H124.3V369.7h161L285.4,887.8L285.4,887.8z M204.9,298.9c-51.6,0-93.4-41.8-93.4-93.4c0-51.5,41.8-93.3,93.4-93.3c51.5,0,93.3,41.8,93.3,93.3C298.2,257.1,256.4,298.9,204.9,298.9z M888.5,887.8H727.6v-252c0-60.1-1.1-137.4-83.7-137.4c-83.7,0-96.6,65.5-96.6,133v256.3H386.4V369.7h154.5v70.8h2.2c21.5-40.7,74.1-83.7,152.4-83.7c163.1,0,193.2,107.3,193.2,246.8L888.5,887.8L888.5,887.8z"/></g><g></g><g></g><g></g><g></g><g></g><g></g><g></g><g></g><g></g><g></g><g></g><g></g><g></g><g></g><g></g></g>
</svg>